<svg width="20" height="20" viewBox="0 0 20 20" fill="none" xmlns="http://www.w3.org/2000/svg">
<path d="M12.3985 11.2458L14.0076 11.7042C14.0972 11.7292 14.1796 11.7749 14.2483 11.8376C14.3169 11.9002 14.3699 11.9781 14.403 12.065C14.4361 12.1519 14.4483 12.2454 14.4387 12.3379C14.429 12.4303 14.3979 12.5193 14.3476 12.5975C14.0335 13.09 13.5335 13.6925 12.9085 13.8425C11.8076 14.1083 10.1151 13.8492 8.00262 11.8917C6.17429 10.1967 5.69095 8.78582 5.80512 7.66665C5.86929 7.03082 6.40262 6.45832 6.85179 6.08082C6.92305 6.02079 7.00727 5.97811 7.09782 5.95612C7.18837 5.93414 7.28278 5.93346 7.37364 5.95414C7.46449 5.97481 7.54932 6.01628 7.62144 6.07528C7.69356 6.13427 7.75102 6.2092 7.78929 6.29415L8.46595 7.81415C8.50965 7.91224 8.52584 8.02036 8.51277 8.12694C8.49971 8.23352 8.45788 8.33453 8.39179 8.41915L8.04845 8.86082C7.97731 8.95145 7.93486 9.06127 7.92654 9.17619C7.91823 9.29111 7.94443 9.40589 8.00179 9.50582C8.41095 10.2133 10.0126 11.6267 10.7735 11.9325C10.8811 11.9754 10.9989 11.9856 11.1123 11.9619C11.2257 11.9382 11.3296 11.8816 11.411 11.7992L11.8043 11.4008C11.8803 11.3241 11.9756 11.2692 12.0801 11.2419C12.1847 11.2147 12.2946 11.216 12.3985 11.2458Z" fill="#08090A"/>
<path fill-rule="evenodd" clip-rule="evenodd" d="M1.66679 9.94083C1.65345 5.54333 5.14429 1.88499 9.56929 1.67666C14.4318 1.44666 18.431 5.36749 18.2793 10.18C18.1385 14.6675 14.3685 18.2325 9.84595 18.1633C8.60674 18.1462 7.38702 17.8524 6.27595 17.3033L2.08095 18.29C2.02824 18.3027 1.97317 18.3019 1.92084 18.2877C1.86851 18.2735 1.82061 18.2463 1.78157 18.2087C1.74253 18.171 1.71361 18.1242 1.69748 18.0724C1.68135 18.0206 1.67853 17.9656 1.68929 17.9125L2.57095 13.6617C1.97889 12.5106 1.66898 11.2352 1.66679 9.94083ZM12.4636 15.8867C13.253 15.5621 13.9705 15.0849 14.5751 14.4825V14.4833C15.7935 13.2742 16.481 11.6258 16.4809 9.91583C16.4827 9.06619 16.315 8.22473 15.9878 7.44063C15.6605 6.65653 15.1803 5.94552 14.5751 5.34916C13.3468 4.12916 11.7135 3.45749 9.97512 3.45749C8.25241 3.45803 6.59945 4.13808 5.37512 5.34999C4.14679 6.56916 3.47012 8.19166 3.47012 9.91666C3.46698 10.9362 3.70937 11.9414 4.17679 12.8475L4.46512 13.4075L3.92345 16.0167L6.49595 15.4117L7.08012 15.7008C7.97985 16.1467 8.97096 16.3772 9.97512 16.3742C10.8286 16.377 11.6743 16.2113 12.4636 15.8867Z" fill="#08090A"/>
</svg>
