<svg width="20" height="20" viewBox="0 0 20 20" fill="none" xmlns="http://www.w3.org/2000/svg">
<path d="M19.5818 5.18581C19.3523 4.32548 18.6739 3.64806 17.8136 3.41774C16.2545 3 10 3 10 3C10 3 3.74545 3 2.18636 3.41774C1.32614 3.64806 0.647727 4.32548 0.418182 5.18581C0 6.74613 0 10 0 10C0 10 0 13.2539 0.418182 14.8142C0.647727 15.6745 1.32614 16.3519 2.18636 16.5823C3.74545 17 10 17 10 17C10 17 16.2545 17 17.8136 16.5823C18.6739 16.3519 19.3523 15.6745 19.5818 14.8142C20 13.2539 20 10 20 10C20 10 20 6.74613 19.5818 5.18581Z" fill="#08090A"/>
<path d="M7.95459 12.9547L13.1819 9.99999L7.95459 7.04532V12.9547Z" fill="white"/>
</svg>
